# xmcd
#
# Track frame offsets: 
#        150
#        14136
#        31638
#        46757
#        58402
#        74203
#        87364
#        98492
#        112694
#        124704
#        135828
#
# Disc length: 2141 seconds
#
# Revision: 2
# Processed by: cddbd v1.5.2PL0 Copyright (c) Steve Scherf et al.
# Submitted via: ExactAudioCopy v0.95b4
#
DISCID=8b085b0b
DTITLE=Fred Eaglesmith - 50-Odd Dollars
DYEAR=1999
DGENRE=Country
TTITLE0=Blue Tick Hound
TTITLE1=Rodeo Boy
TTITLE2=Ten Ton Chain
TTITLE3=Gettin' To Me
TTITLE4=Mighty Big Car
TTITLE5=Crazier
TTITLE6=Georgia Overdrive
TTITLE7=Steel Guitar
TTITLE8=Carter
TTITLE9=Alternator
TTITLE10=Bullets
EXTD=
EXTT0=
EXTT1=
EXTT2=
EXTT3=
EXTT4=
EXTT5=
EXTT6=
EXTT7=
EXTT8=
EXTT9=
EXTT10=
PLAYORDER=
